<svg xmlns="http://www.w3.org/2000/svg" xmlns:xlink="http://www.w3.org/1999/xlink" width="118" height="44" viewBox="0 0 118 44">
    <defs>
        <linearGradient id="6vy0o6ghbc" x1="50%" x2="50%" y1="0%" y2="100%">
            <stop offset="0%" stop-color="#2BC9FF"/>
            <stop offset="99.601%" stop-color="#1399FF"/>
        </linearGradient>
        <filter id="dbvgl2yh3a" width="156.6%" height="156.6%" x="-28.3%" y="-28.3%" filterUnits="objectBoundingBox">
            <feOffset dx="-1" dy="-1" in="SourceAlpha" result="shadowOffsetOuter1"/>
            <feGaussianBlur in="shadowOffsetOuter1" result="shadowBlurOuter1" stdDeviation="2.5"/>
            <feColorMatrix in="shadowBlurOuter1" result="shadowMatrixOuter1" values="0 0 0 0 1 0 0 0 0 1 0 0 0 0 1 0 0 0 0.2 0"/>
            <feOffset dx="1" dy="1" in="SourceAlpha" result="shadowOffsetOuter2"/>
            <feGaussianBlur in="shadowOffsetOuter2" result="shadowBlurOuter2" stdDeviation="2.5"/>
            <feColorMatrix in="shadowBlurOuter2" result="shadowMatrixOuter2" values="0 0 0 0 0 0 0 0 0 0 0 0 0 0 0 0 0 0 0.102496603 0"/>
            <feMerge>
                <feMergeNode in="shadowMatrixOuter1"/>
                <feMergeNode in="shadowMatrixOuter2"/>
            </feMerge>
        </filter>
        <path id="clewj03mdb" d="M31.391 14.67c-.884-1.13-1.13-2.298-.778-3.605.247-.92-.176-1.838-.99-2.298-1.13-.636-1.767-1.556-1.943-2.829-.106-.92-.849-1.661-1.803-1.803-1.273-.176-2.193-.778-2.829-1.944-.46-.812-1.414-1.237-2.298-.989-1.343.353-2.474.106-3.605-.778-.707-.565-1.733-.565-2.475 0-1.13.884-2.298 1.131-3.605.778-.92-.247-1.838.177-2.298.99-.636 1.13-1.556 1.767-2.829 1.943-.92.106-1.661.849-1.803 1.803-.176 1.273-.778 2.193-1.944 2.829-.812.46-1.237 1.414-.989 2.298.353 1.343.106 2.474-.778 3.605-.565.708-.565 1.733 0 2.475.884 1.13 1.131 2.298.778 3.605-.247.92.177 1.838.99 2.298 1.13.636 1.767 1.556 1.943 2.829.106.92.849 1.661 1.803 1.803 1.273.176 2.193.778 2.829 1.944.46.813 1.414 1.238 2.298.989 1.343-.353 2.474-.106 3.605.778.708.565 1.733.565 2.475 0 1.13-.884 2.298-1.13 3.605-.778.92.247 1.838-.176 2.298-.99.636-1.13 1.556-1.767 2.829-1.943.92-.106 1.661-.849 1.803-1.803.176-1.273.778-2.193 1.944-2.829.813-.46 1.238-1.414.989-2.298-.353-1.343-.106-2.474.778-3.605.565-.706.565-1.768 0-2.475z"/>
    </defs>
    <g fill="none" fill-rule="evenodd">
        <g>
            <g>
                <g>
                    <g>
                        <g fill-rule="nonzero" transform="translate(-291 -43) translate(277 30) translate(20 19)">
                            <use fill="#000" filter="url(#dbvgl2yh3a)" xlink:href="#clewj03mdb"/>
                            <use fill="url(#6vy0o6ghbc)" xlink:href="#clewj03mdb"/>
                        </g>
                        <g fill="#FFF">
                            <path d="M26.047.99c1.206 1.2 1.211 3.15.012 4.357l-.012.011-13.904 13.83c-.814.81-1.965 1.077-3.002.8-.58-.115-1.135-.397-1.586-.846L.969 12.59C-.237 11.39-.243 9.44.957 8.235l.012-.011c1.214-1.208 3.176-1.208 4.39 0l4.513 4.488L21.656.991c1.215-1.208 3.177-1.208 4.39 0z" transform="translate(-291 -43) translate(277 30) translate(20 19) translate(4.86 5.163)"/>
                        </g>
                    </g>
                    <g fill="#000" fill-rule="nonzero">
                        <path d="M5.52 15.652c.806 0 1.54-.128 2.204-.384.663-.256 1.231-.622 1.706-1.097.475-.475.844-1.052 1.107-1.732.263-.68.395-1.443.395-2.29 0-.841-.132-1.598-.395-2.271-.263-.673-.632-1.245-1.107-1.717-.475-.471-1.043-.833-1.706-1.086-.663-.253-1.398-.38-2.204-.38-.813 0-1.553.127-2.219.38-.666.253-1.24.615-1.722 1.086-.482.472-.854 1.044-1.117 1.717s-.395 1.43-.395 2.27c0 .848.132 1.611.395 2.291.263.68.635 1.257 1.117 1.732.482.475 1.056.84 1.722 1.097.666.256 1.406.384 2.219.384zm0-2.357c-.752 0-1.302-.258-1.65-.774-.349-.516-.523-1.3-.523-2.352 0-1.052.174-1.835.523-2.347.348-.513.898-.77 1.65-.77.731 0 1.27.257 1.614.77.345.512.518 1.295.518 2.347s-.173 1.836-.518 2.352c-.345.516-.883.774-1.614.774zm10.024 2.193V7.053h3.629v8.435h3.177V7.053h3.464v8.435h3.178V4.88h-6.744v-.051c0-.417.053-.786.158-1.107.106-.321.294-.59.564-.805.27-.215.637-.377 1.102-.487.465-.109 1.052-.164 1.763-.164.178 0 .345-.027.502-.082.157-.054.243-.167.256-.338l.103-1.61c-.24-.06-.523-.107-.85-.137-.329-.031-.646-.047-.954-.047-.998 0-1.857.123-2.578.37-.72.245-1.313.578-1.778.999-.465.42-.808.915-1.03 1.486-.222.57-.333 1.177-.333 1.82v.153h-3.731v-.307c0-.349.037-.638.113-.867.075-.228.186-.411.333-.548.147-.137.33-.232.548-.287.219-.055.468-.082.748-.082.178 0 .35-.043.518-.128.167-.085.258-.238.271-.456l.062-1.548c-.24-.061-.468-.108-.687-.138-.218-.031-.458-.046-.717-.046-.67 0-1.268.094-1.794.281-.526.188-.972.457-1.338.805-.365.349-.645.77-.84 1.266-.195.495-.292 1.047-.292 1.655v.4H10.87v1.25c0 .226.074.397.22.513.148.116.34.202.58.256l.697.144v8.445h3.177zm19.352.164c.362 0 .734-.025 1.117-.076.383-.052.764-.144 1.143-.277.379-.133.75-.318 1.112-.554.362-.235.707-.541 1.035-.917l-.922-1.138c-.13-.184-.322-.276-.574-.276-.192 0-.35.047-.477.143l-.415.313c-.15.112-.333.215-.548.307-.216.092-.508.139-.877.139-.69 0-1.231-.274-1.624-.82-.393-.547-.59-1.33-.59-2.348 0-.485.045-.92.134-1.306.088-.387.225-.713.41-.98.184-.266.418-.47.702-.614.283-.144.62-.216 1.01-.216.314 0 .577.038.788.113.212.075.397.16.554.251l.425.251c.127.076.268.113.426.113.164 0 .29-.034.379-.102.089-.069.181-.16.277-.277l.84-1.117c-.506-.513-1.073-.902-1.701-1.169-.629-.266-1.36-.4-2.194-.4-.868 0-1.631.14-2.29.42-.66.28-1.213.665-1.661 1.154-.448.488-.786 1.066-1.015 1.732-.229.666-.343 1.382-.343 2.147 0 .875.131 1.654.394 2.337.264.684.619 1.26 1.066 1.727.448.468.967.825 1.558 1.071.591.246 1.212.37 1.86.37zm6.621-11.858c.267 0 .518-.05.753-.15.236-.098.443-.231.62-.399.178-.167.318-.362.42-.584.103-.222.155-.46.155-.712 0-.26-.052-.503-.154-.728-.103-.226-.243-.424-.42-.595-.178-.17-.385-.304-.62-.4-.236-.095-.487-.143-.754-.143-.26 0-.502.048-.728.144-.225.095-.425.229-.6.4-.174.17-.31.368-.41.594-.098.225-.148.468-.148.728 0 .252.05.49.149.712.099.222.235.417.41.584.174.168.374.3.6.4.225.099.467.149.727.149zm1.62 11.694V4.86h-3.178v10.628h3.178zm4.038.164c.362 0 .692-.029.989-.087.297-.058.577-.147.84-.266.264-.12.518-.265.764-.436.246-.17.502-.369.769-.594l.225.584c.103.26.23.43.385.512.153.082.38.123.681.123h1.456V8.847c0-.609-.096-1.169-.287-1.681-.192-.513-.467-.955-.825-1.328-.36-.372-.796-.662-1.312-.87-.516-.21-1.095-.313-1.738-.313-.895 0-1.734.138-2.516.415-.782.276-1.495.698-2.137 1.265l.574.995c.096.15.219.28.369.39.15.109.335.163.553.163.246 0 .458-.04.636-.123.178-.082.36-.174.548-.277.188-.102.402-.194.64-.276.24-.082.548-.123.923-.123.472 0 .836.138 1.092.415.256.277.384.726.384 1.348v.45c-1.216.028-2.224.151-3.023.37-.8.218-1.435.49-1.907.814-.471.325-.803.684-.994 1.077-.191.393-.287.78-.287 1.163 0 .478.075.9.225 1.266.15.365.364.671.641.917s.613.432 1.01.559c.396.126.837.19 1.322.19zm1.004-2.1c-.382 0-.673-.074-.87-.221-.199-.147-.298-.402-.298-.764 0-.184.046-.355.138-.512.093-.157.258-.297.497-.42.24-.123.564-.226.974-.308.41-.082.933-.137 1.568-.164v1.476c-.314.321-.625.554-.932.697-.308.144-.667.215-1.077.215zm9.656 1.936V.145h-3.178v15.343h3.178zm4.673 0V.145h-3.177v15.343h3.177zm4.91 3.373c.3 0 .52-.05.656-.149.137-.1.253-.255.349-.466L74.1 4.86h-2.563c-.184 0-.355.052-.512.158-.157.106-.266.238-.328.395L69.12 9.974c-.082.212-.161.427-.236.646l-.226.656c-.102-.437-.235-.865-.4-1.281l-1.742-4.582c-.061-.15-.159-.28-.292-.39-.133-.109-.323-.163-.569-.163h-2.808l4.243 9.696-2.05 4.305h2.378z" transform="translate(-291 -43) translate(277 30) translate(20 19) translate(37.203 8.352)"/>
                    </g>
                </g>
            </g>
        </g>
    </g>
</svg>
